<svg xmlns="http://www.w3.org/2000/svg" style="display: none">
  <symbol id="logo" viewBox="0 0 42 17">
    <path fill="#F9F9F9" d="M0 11V0h12.89c1.753 0 3.46.558 4.873 1.594a6.216 6.216 0 0 1 1.962 2.393l1.491 3.205a21.673 21.673 0 0 1 2.155-4.003l.074-.108c.245-.361.527-.696.839-1.001l.635-.62a4.313 4.313 0 0 1 1.444-.933l.055-.022A7.366 7.366 0 0 1 29.1 0H42v11H0ZM0 13h42v4H0z"/>
  </symbol>
  <symbol id="openeye" viewBox="0 0 20 20">
  <path stroke="#F9F9F9" strokeLinecap="round" strokeLinejoin="round" strokeWidth="1.3" d="M.833 10S4.167 3.333 10 3.333 19.167 10 19.167 10 15.833 16.667 10 16.667.833 10 .833 10Z"/>
  <path stroke="#F9F9F9" strokeLinecap="round" strokeLinejoin="round" strokeWidth="1.3" d="M10 12.5a2.5 2.5 0 1 0 0-5 2.5 2.5 0 0 0 0 5Z"/>
</symbol>
<symbol id="closedeye" viewBox="0 0 20 20">

  <g stroke="#F9F9F9" stroke-linecap="round" stroke-linejoin="round" stroke-width="1.3" clip-path="url(#a)">
    <path d="M14.95 14.95A8.392 8.392 0 0 1 10 16.667C4.167 16.667.833 10 .833 10A15.375 15.375 0 0 1 5.05 5.05m3.2-1.517a7.6 7.6 0 0 1 1.75-.2c5.833 0 9.167 6.667 9.167 6.667a15.418 15.418 0 0 1-1.8 2.658m-5.6-.891a2.5 2.5 0 1 1-3.534-3.534M.833.833l18.334 18.334"/>
  </g>
  <defs>
    <clipPath id="a">
      <path fill="#fff" d="M0 0h20v20H0z"/>
    </clipPath>
  </defs>

</symbol>
<symbol id="burger" viewBox="0 0 28 28">
  <path stroke="#F9F9F9" stroke-linecap="round" stroke-linejoin="round" stroke-width="2" d="M3.5 14h21m-21-7h21m-14 14h14"/>
</symbol>

<symbol id="arrow" viewBox="0 0 24 24">

  <path stroke="#E3E3E3" stroke-linecap="round" stroke-linejoin="round" stroke-width="2" d="m14 17 5-5-5-5M19 12H5"/>

</symbol>
<symbol id="error-icon" viewBox="0 0 20 20">

  <g clip-path="url(#a)">
    <path fill="#E90516" fill-rule="evenodd" d="M10 18.125a8.125 8.125 0 1 0 0-16.25 8.125 8.125 0 0 0 0 16.25ZM10 20a10 10 0 1 0 0-20 10 10 0 0 0 0 20Zm1.25-6.25a1.25 1.25 0 1 1-2.5 0 1.25 1.25 0 0 1 2.5 0Zm-.313-7.813a.938.938 0 0 0-1.874 0v4.375a.937.937 0 0 0 1.874 0V5.939Z" clip-rule="evenodd"/>
  </g>
  <defs>
    <clipPath id="a">
      <path fill="#fff" d="M0 0h20v20H0z"/>
    </clipPath>
  </defs>

</symbol>
<symbol id="success-icon" viewBox="0 0 20 20">

  <g fill="#30B94D" clip-path="url(#a)">
    <path d="M9.375 13.6 6 9.8l1.125-1.267 2.25 2.533L13.875 6 15 7.267l-5.625 6.331v.002Z"/>
    <path fill-rule="evenodd" d="M0 10C0 4.477 4.477 0 10 0s10 4.477 10 10-4.477 10-10 10S0 15.523 0 10Zm10 8.182a8.181 8.181 0 1 1 0-16.363 8.181 8.181 0 0 1 0 16.363Z" clip-rule="evenodd"/>
  </g>
  <defs>
    <clipPath id="a">
      <path fill="#fff" d="M0 0h20v20H0z"/>
    </clipPath>
  </defs>

</symbol>
<symbol id="diary" viewBox="0 0 20 20">

  <path stroke="#F9F9F9" stroke-linecap="round" stroke-linejoin="round" stroke-width="2" d="M10 10 6.44 7.033c-.53-.441-.794-.662-.984-.932a2.5 2.5 0 0 1-.37-.79C5 4.994 5 4.65 5 3.96V1.667M10 10l3.56-2.967c.53-.441.794-.662.984-.932a2.5 2.5 0 0 0 .37-.79C15 4.994 15 4.65 15 3.96V1.667M10 10l-3.56 2.967c-.53.441-.794.662-.984.932a2.5 2.5 0 0 0-.37.79C5 15.006 5 15.35 5 16.04v2.293M10 10l3.56 2.967c.53.441.794.662.984.932a2.5 2.5 0 0 1 .37.79c.086.318.086.662.086 1.351v2.293M3.333 1.667h13.334M3.333 18.333h13.334"/>

</symbol>
<symbol id="statistics" viewBox="0 0 20 20">

  <g clip-path="url(#clip0_18746_5038)">
    <path opacity="0.8" d="M14.3334 11.6666C14.5643 11.6666 14.6797 11.6666 14.7732 11.7179C14.8504 11.7602 14.9222 11.8396 14.9566 11.9206C14.9982 12.0188 14.9877 12.1232 14.9668 12.3322C14.8581 13.4156 14.4852 14.4595 13.8765 15.3704C13.144 16.4668 12.1028 17.3212 10.8846 17.8258C9.66647 18.3304 8.32602 18.4624 7.03282 18.2052C5.73961 17.948 4.55172 17.313 3.61937 16.3807C2.68702 15.4483 2.05208 14.2604 1.79485 12.9672C1.53761 11.674 1.66964 10.3336 2.17422 9.11541C2.67881 7.89724 3.53329 6.85605 4.62962 6.12351C5.54055 5.51484 6.58446 5.14197 7.66784 5.03327C7.87681 5.01231 7.98129 5.00182 8.07948 5.04348C8.16049 5.07785 8.23988 5.14968 8.28216 5.22684C8.33342 5.32039 8.33342 5.4358 8.33342 5.66664V11C8.33342 11.2333 8.33342 11.35 8.37883 11.4391C8.41878 11.5175 8.48252 11.5813 8.56092 11.6212C8.65005 11.6666 8.76673 11.6666 9.00009 11.6666H14.3334Z" stroke="#F9F9F9" stroke-width="2" stroke-linecap="round" stroke-linejoin="round" />
    <path d="M11.6667 2.33333C11.6667 2.1025 11.6667 1.98708 11.718 1.89353C11.7603 1.81637 11.8397 1.74454 11.9207 1.71017C12.0189 1.66851 12.1234 1.67899 12.3323 1.69995C13.856 1.85279 15.2884 2.52692 16.3808 3.61929C17.4732 4.71166 18.1473 6.14408 18.3001 7.66775C18.3211 7.87672 18.3316 7.98121 18.2899 8.0794C18.2555 8.16041 18.1837 8.2398 18.1065 8.28208C18.013 8.33333 17.8976 8.33333 17.6667 8.33333L12.3334 8.33333C12.1001 8.33333 11.9834 8.33333 11.8943 8.28792C11.8159 8.24797 11.7521 8.18423 11.7122 8.10583C11.6667 8.0167 11.6667 7.90002 11.6667 7.66667L11.6667 2.33333Z" stroke="#F9F9F9" stroke-width="2" stroke-linecap="round" stroke-linejoin="round" />
  </g>
  <defs>
    <clipPath id="clip0_18746_5038">
      <rect width="20" height="20" fill="white" />
    </clipPath>
  </defs>

</symbol>

<symbol id="trash-bin" viewBox="0 0 20 20">

  <path d="M1.75 3.5H2.91667H12.25" stroke="#686868" stroke-linecap="round" stroke-linejoin="round" />
  <path d="M11.0833 3.50008V11.6668C11.0833 11.9762 10.9604 12.2729 10.7416 12.4917C10.5228 12.7105 10.2261 12.8334 9.91667 12.8334H4.08334C3.77392 12.8334 3.47717 12.7105 3.25838 12.4917C3.03959 12.2729 2.91667 11.9762 2.91667 11.6668V3.50008M4.66667 3.50008V2.33342C4.66667 2.024 4.78959 1.72725 5.00838 1.50846C5.22717 1.28966 5.52392 1.16675 5.83334 1.16675H8.16667C8.47609 1.16675 8.77284 1.28966 8.99163 1.50846C9.21042 1.72725 9.33334 2.024 9.33334 2.33342V3.50008" stroke="#686868" stroke-linecap="round" stroke-linejoin="round" />
  <path d="M5.83333 6.41675V9.91675" stroke="#686868" stroke-linecap="round" stroke-linejoin="round" />
  <path d="M8.16667 6.41675V9.91675" stroke="#686868" stroke-linecap="round" stroke-linejoin="round" />

</symbol>
<symbol id="trend" viewBox="0 0 67 33">

  <g filter="url(#a)">
    <path fill="#30B94D" fill-opacity=".2" d="M63 1 4 9.421V25h59V1Z" shape-rendering="crispEdges"/>
  </g>
  <rect width="60" height="3" fill="#30B94D" rx="1" transform="scale(-1 1) rotate(9.184 -31.26 -389.211)"/>
  <defs>
    <filter id="a" width="67" height="32" x="0" y="1" color-interpolation-filters="sRGB" filterUnits="userSpaceOnUse">
      <feFlood flood-opacity="0" result="BackgroundImageFix"/>
      <feColorMatrix in="SourceAlpha" result="hardAlpha" values="0 0 0 0 0 0 0 0 0 0 0 0 0 0 0 0 0 0 127 0"/>
      <feOffset dy="4"/>
      <feGaussianBlur stdDeviation="2"/>
      <feComposite in2="hardAlpha" operator="out"/>
      <feColorMatrix values="0 0 0 0 0 0 0 0 0 0 0 0 0 0 0 0 0 0 0.25 0"/>
      <feBlend in2="BackgroundImageFix" result="effect1_dropShadow_18617_1644"/>
      <feBlend in="SourceGraphic" in2="effect1_dropShadow_18617_1644" result="shape"/>
    </filter>
  </defs>

</symbol>

<symbol id="square" viewBox="0 0 20 20">

  <rect width="20" height="20" fill="#F9F9F9" rx="4"/>
  <rect width="12" height="12" x="4" y="4" fill="#141414" rx="2"/>

</symbol>
<symbol id="start" viewBox="0 0 50 50">

  <circle cx="25" cy="25" r="20" fill="#E90516"/>
  <circle cx="25" cy="25" r="24" stroke="#F9F9F9" stroke-width="2"/>

</symbol>
<symbol id="stop" viewBox="0 0 50 50">

  <circle cx="25" cy="25" r="24" stroke="#F9F9F9" stroke-width="2"/>
  <rect width="20" height="20" x="15" y="15" fill="#E90516" rx="3"/>

</symbol>
</svg>
