<svg xmlns="http://www.w3.org/2000/svg" style="display: none">
  <symbol id="logo" viewBox="0 0 42 17">
    <path fill="#F9F9F9" d="M0 11V0h12.89c1.753 0 3.46.558 4.873 1.594a6.216 6.216 0 0 1 1.962 2.393l1.491 3.205a21.673 21.673 0 0 1 2.155-4.003l.074-.108c.245-.361.527-.696.839-1.001l.635-.62a4.313 4.313 0 0 1 1.444-.933l.055-.022A7.366 7.366 0 0 1 29.1 0H42v11H0ZM0 13h42v4H0z"/>
  </symbol>
  <symbol id="openeye" viewBox="0 0 20 20">
  <path stroke="#F9F9F9" strokeLinecap="round" strokeLinejoin="round" strokeWidth="1.3" d="M.833 10S4.167 3.333 10 3.333 19.167 10 19.167 10 15.833 16.667 10 16.667.833 10 .833 10Z"/>
  <path stroke="#F9F9F9" strokeLinecap="round" strokeLinejoin="round" strokeWidth="1.3" d="M10 12.5a2.5 2.5 0 1 0 0-5 2.5 2.5 0 0 0 0 5Z"/>
</symbol>
<symbol id="closedeye" viewBox="0 0 20 20">

  <g stroke="#F9F9F9" stroke-linecap="round" stroke-linejoin="round" stroke-width="1.3" clip-path="url(#a)">
    <path d="M14.95 14.95A8.392 8.392 0 0 1 10 16.667C4.167 16.667.833 10 .833 10A15.375 15.375 0 0 1 5.05 5.05m3.2-1.517a7.6 7.6 0 0 1 1.75-.2c5.833 0 9.167 6.667 9.167 6.667a15.418 15.418 0 0 1-1.8 2.658m-5.6-.891a2.5 2.5 0 1 1-3.534-3.534M.833.833l18.334 18.334"/>
  </g>
  <defs>
    <clipPath id="a">
      <path fill="#fff" d="M0 0h20v20H0z"/>
    </clipPath>
  </defs>

</symbol>
</svg>
