<svg xmlns="http://www.w3.org/2000/svg" style="display: none">
  <symbol id="logo" viewBox="0 0 42 17">
    <path fill="#F9F9F9" d="M0 11V0h12.89c1.753 0 3.46.558 4.873 1.594a6.216 6.216 0 0 1 1.962 2.393l1.491 3.205a21.673 21.673 0 0 1 2.155-4.003l.074-.108c.245-.361.527-.696.839-1.001l.635-.62a4.313 4.313 0 0 1 1.444-.933l.055-.022A7.366 7.366 0 0 1 29.1 0H42v11H0ZM0 13h42v4H0z"/>
  </symbol>
  <symbol id="openeye" viewBox="0 0 20 20">
  <path stroke="#F9F9F9" strokeLinecap="round" strokeLinejoin="round" strokeWidth="1.3" d="M.833 10S4.167 3.333 10 3.333 19.167 10 19.167 10 15.833 16.667 10 16.667.833 10 .833 10Z"/>
  <path stroke="#F9F9F9" strokeLinecap="round" strokeLinejoin="round" strokeWidth="1.3" d="M10 12.5a2.5 2.5 0 1 0 0-5 2.5 2.5 0 0 0 0 5Z"/>
</symbol>
<symbol id="closedeye" viewBox="0 0 20 20">

  <g stroke="#F9F9F9" stroke-linecap="round" stroke-linejoin="round" stroke-width="1.3" clip-path="url(#a)">
    <path d="M14.95 14.95A8.392 8.392 0 0 1 10 16.667C4.167 16.667.833 10 .833 10A15.375 15.375 0 0 1 5.05 5.05m3.2-1.517a7.6 7.6 0 0 1 1.75-.2c5.833 0 9.167 6.667 9.167 6.667a15.418 15.418 0 0 1-1.8 2.658m-5.6-.891a2.5 2.5 0 1 1-3.534-3.534M.833.833l18.334 18.334"/>
  </g>
  <defs>
    <clipPath id="a">
      <path fill="#fff" d="M0 0h20v20H0z"/>
    </clipPath>
  </defs>

</symbol>
<symbol id="burger" viewBox="0 0 28 28">
  <path stroke="#F9F9F9" stroke-linecap="round" stroke-linejoin="round" stroke-width="2" d="M3.5 14h21m-21-7h21m-14 14h14"/>
</symbol>

<symbol id="arrow" viewBox="0 0 24 24">

  <path stroke="#E3E3E3" stroke-linecap="round" stroke-linejoin="round" stroke-width="2" d="m14 17 5-5-5-5M19 12H5"/>

</symbol>
<symbol id="error-icon" viewBox="0 0 20 20">

  <g clip-path="url(#a)">
    <path fill="#E90516" fill-rule="evenodd" d="M10 18.125a8.125 8.125 0 1 0 0-16.25 8.125 8.125 0 0 0 0 16.25ZM10 20a10 10 0 1 0 0-20 10 10 0 0 0 0 20Zm1.25-6.25a1.25 1.25 0 1 1-2.5 0 1.25 1.25 0 0 1 2.5 0Zm-.313-7.813a.938.938 0 0 0-1.874 0v4.375a.937.937 0 0 0 1.874 0V5.939Z" clip-rule="evenodd"/>
  </g>
  <defs>
    <clipPath id="a">
      <path fill="#fff" d="M0 0h20v20H0z"/>
    </clipPath>
  </defs>

</symbol>
<symbol id="success-icon" viewBox="0 0 20 20">

  <g fill="#30B94D" clip-path="url(#a)">
    <path d="M9.375 13.6 6 9.8l1.125-1.267 2.25 2.533L13.875 6 15 7.267l-5.625 6.331v.002Z"/>
    <path fill-rule="evenodd" d="M0 10C0 4.477 4.477 0 10 0s10 4.477 10 10-4.477 10-10 10S0 15.523 0 10Zm10 8.182a8.181 8.181 0 1 1 0-16.363 8.181 8.181 0 0 1 0 16.363Z" clip-rule="evenodd"/>
  </g>
  <defs>
    <clipPath id="a">
      <path fill="#fff" d="M0 0h20v20H0z"/>
    </clipPath>
  </defs>

</symbol>
</svg>
